<?xml version="1.0" encoding="utf-8"?>
<!-- Generator: Adobe Illustrator 16.0.0, SVG Export Plug-In . SVG Version: 6.00 Build 0)  -->
<!DOCTYPE svg PUBLIC "-//W3C//DTD SVG 1.1//EN" "http://www.w3.org/Graphics/SVG/1.1/DTD/svg11.dtd">
<svg version="1.1" id="Layer_1" xmlns="http://www.w3.org/2000/svg" xmlns:xlink="http://www.w3.org/1999/xlink" x="0px" y="0px"
	 width="80px" height="80px" viewBox="0 0 80 80" enable-background="new 0 0 80 80" xml:space="preserve">
<g>
	<g opacity="0.2">
		<path id="SVGCleanerId_0_4_" fill="#094B88" d="M16.584,57.162c-0.324-0.061-0.638-0.141-0.934-0.238
			c-2.164-0.729-3.387-2.496-3.79-4.773c-0.038-0.215-0.35-0.215-0.388,0c-0.467,2.646-2.025,4.52-4.709,5.018
			c-0.214,0.04-0.214,0.35,0,0.389c2.66,0.49,4.245,2.356,4.711,4.981c0.028,0.166,0.204,0.166,0.193,0.162
			c0.095,0,0.176-0.069,0.193-0.162c0.238-1.354,0.904-3.192,2.731-4.269c0.584-0.344,1.254-0.584,1.993-0.721
			c0.093-0.018,0.161-0.099,0.161-0.193C16.746,57.26,16.678,57.18,16.584,57.162z"/>
	</g>
	<path opacity="0.2" fill="#093D63" enable-background="new    " d="M8.819,56.398c-0.63,0.386-1.33,0.632-2.056,0.767
		c-0.214,0.04-0.214,0.349,0,0.387c2.66,0.492,4.245,2.358,4.711,4.983c0.028,0.166,0.204,0.166,0.193,0.162
		c0.095,0,0.176-0.069,0.193-0.162c0.131-0.75,0.395-1.646,0.914-2.48C12.072,58.096,10.729,56.877,8.819,56.398z"/>
	<path opacity="0.2" fill="#F7E7A1" enable-background="new    " d="M7.942,62.266c-0.766-0.254-1.272-0.824-1.519-1.609
		c-0.044-0.145-0.194-0.143-0.188-0.141c-0.086,0-0.163,0.055-0.188,0.141C5.808,61.417,5.309,62,4.529,62.266
		c-0.177,0.063-0.177,0.313,0,0.373c0.774,0.268,1.278,0.844,1.519,1.612c0.044,0.142,0.193,0.14,0.188,0.138
		c0.086,0,0.162-0.056,0.188-0.139c0.178-0.576,0.492-1.021,0.934-1.323l0,0c0.482-0.329,0.719-0.233,0.719-0.474
		C8.076,62.368,8.022,62.293,7.942,62.266z"/>
	<path opacity="0.2" fill="#EAD786" enable-background="new    " d="M5.313,61.839c-0.005-0.002-0.01-0.005-0.016-0.007
		c-0.227,0.193-0.486,0.337-0.769,0.434c-0.177,0.063-0.177,0.313,0,0.373c0.774,0.268,1.278,0.844,1.519,1.612
		c0.044,0.142,0.193,0.14,0.188,0.138c0.277,0,0.13-0.33,0.591-0.951C6.582,62.666,6.076,62.1,5.313,61.839z"/>
	<path opacity="0.2" fill="#07A8F6" enable-background="new    " d="M5.309,53.29c-0.769-0.255-1.273-0.828-1.519-1.613
		c-0.044-0.142-0.193-0.14-0.188-0.138c-0.085,0-0.162,0.057-0.188,0.138c-0.238,0.763-0.736,1.345-1.518,1.613
		c-0.177,0.062-0.177,0.312,0,0.371c0.777,0.267,1.278,0.847,1.519,1.612c0.044,0.143,0.193,0.141,0.188,0.14
		c0.086,0,0.162-0.058,0.188-0.14c0.295-0.953,0.889-1.278,0.934-1.322c0.481-0.33,0.72-0.237,0.72-0.475
		C5.443,53.393,5.389,53.316,5.309,53.29z"/>
	<path opacity="0.2" fill="#1093C6" enable-background="new    " d="M2.604,52.905c-0.542,0.434-0.841,0.313-0.841,0.569
		c0,0.084,0.054,0.156,0.133,0.187c0.777,0.267,1.278,0.847,1.519,1.612c0.044,0.143,0.193,0.141,0.188,0.14
		c0.263,0,0.137-0.31,0.555-0.902C3.728,53.186,2.702,52.969,2.604,52.905z"/>
</g>
<g>
	<g opacity="0.2">
		<path id="SVGCleanerId_0_3_" fill="#094B88" d="M46.896,8.585c-0.281-0.051-0.559-0.121-0.813-0.208
			c-1.883-0.633-2.946-2.171-3.297-4.151c-0.033-0.188-0.306-0.188-0.338,0c-0.406,2.301-1.761,3.929-4.097,4.362
			c-0.186,0.034-0.186,0.302,0,0.336c2.314,0.428,3.693,2.052,4.098,4.335c0.025,0.145,0.179,0.145,0.169,0.142
			c0.082,0,0.153-0.061,0.168-0.142c0.207-1.178,0.787-2.777,2.377-3.71c0.508-0.298,1.091-0.509,1.731-0.627
			c0.082-0.015,0.142-0.086,0.142-0.168S46.977,8.6,46.896,8.585z"/>
	</g>
	<path opacity="0.2" fill="#093D63" enable-background="new    " d="M40.14,7.921c-0.548,0.335-1.156,0.549-1.789,0.667
		c-0.186,0.034-0.186,0.302,0,0.336c2.314,0.428,3.693,2.052,4.098,4.335c0.025,0.145,0.179,0.145,0.169,0.142
		c0.082,0,0.153-0.061,0.168-0.142c0.114-0.652,0.344-1.433,0.795-2.158C42.971,9.398,41.8,8.338,40.14,7.921z"/>
	<path opacity="0.2" fill="#F7E7A1" enable-background="new    " d="M39.376,13.026c-0.666-0.221-1.106-0.717-1.321-1.402
		c-0.038-0.124-0.169-0.123-0.163-0.121c-0.075,0-0.141,0.049-0.164,0.121c-0.207,0.663-0.642,1.17-1.32,1.403
		c-0.154,0.052-0.154,0.271,0,0.324c0.675,0.231,1.112,0.734,1.32,1.403c0.04,0.124,0.169,0.121,0.164,0.12
		c0.075,0,0.142-0.049,0.163-0.12c0.156-0.501,0.43-0.889,0.813-1.151l0,0c0.42-0.287,0.625-0.205,0.625-0.412
		C39.493,13.115,39.446,13.05,39.376,13.026z"/>
	<path opacity="0.2" fill="#EAD786" enable-background="new    " d="M37.089,12.655c-0.003-0.002-0.009-0.004-0.013-0.006
		c-0.197,0.169-0.423,0.292-0.668,0.377c-0.154,0.052-0.154,0.271,0,0.324c0.675,0.231,1.112,0.734,1.32,1.403
		c0.04,0.124,0.169,0.121,0.164,0.12c0.242,0,0.113-0.288,0.515-0.827C38.193,13.375,37.752,12.881,37.089,12.655z"/>
	<path opacity="0.2" fill="#07A8F6" enable-background="new    " d="M37.085,5.217c-0.67-0.221-1.107-0.72-1.321-1.403
		c-0.038-0.123-0.168-0.122-0.163-0.12c-0.075,0-0.142,0.048-0.164,0.12c-0.206,0.661-0.64,1.169-1.322,1.402
		c-0.153,0.053-0.153,0.271,0,0.324c0.677,0.231,1.113,0.736,1.323,1.404c0.038,0.123,0.168,0.121,0.163,0.12
		c0.075,0,0.142-0.049,0.163-0.12c0.257-0.83,0.773-1.113,0.812-1.151c0.42-0.288,0.626-0.206,0.626-0.413
		C37.202,5.305,37.154,5.24,37.085,5.217z"/>
	<path opacity="0.2" fill="#1093C6" enable-background="new    " d="M34.733,4.882C34.26,5.26,34,5.154,34,5.378
		c0,0.074,0.047,0.139,0.115,0.162c0.677,0.231,1.113,0.736,1.323,1.404c0.038,0.123,0.168,0.121,0.163,0.12
		c0.229,0,0.119-0.268,0.483-0.784C35.709,5.125,34.817,4.937,34.733,4.882z"/>
</g>
<g>
	<g opacity="0.2">
		<path id="SVGCleanerId_0_2_" fill="#094B88" d="M73.214,68.781c-0.312-0.057-0.61-0.135-0.896-0.229
			c-2.074-0.698-3.248-2.394-3.635-4.577c-0.037-0.207-0.336-0.207-0.371,0c-0.449,2.537-1.941,4.332-4.521,4.812
			c-0.205,0.038-0.205,0.334,0,0.371c2.552,0.473,4.069,2.263,4.521,4.776c0.025,0.159,0.194,0.159,0.187,0.156
			c0.092-0.001,0.17-0.066,0.187-0.156c0.229-1.299,0.866-3.062,2.619-4.091c0.559-0.329,1.202-0.561,1.91-0.69
			c0.09-0.018,0.154-0.096,0.154-0.188C73.369,68.876,73.305,68.798,73.214,68.781z"/>
	</g>
	<path opacity="0.2" fill="#093D63" enable-background="new    " d="M65.768,68.049c-0.604,0.37-1.273,0.605-1.973,0.735
		c-0.205,0.038-0.205,0.334,0,0.371c2.553,0.473,4.071,2.263,4.52,4.778c0.026,0.157,0.195,0.157,0.188,0.154
		c0.092-0.001,0.17-0.064,0.188-0.154c0.127-0.721,0.379-1.58,0.877-2.379C68.886,69.677,67.598,68.509,65.768,68.049z"/>
	<path opacity="0.2" fill="#F7E7A1" enable-background="new    " d="M64.925,73.676c-0.733-0.242-1.22-0.79-1.456-1.546
		c-0.042-0.136-0.186-0.135-0.18-0.133c-0.083,0-0.156,0.054-0.182,0.132c-0.229,0.73-0.707,1.291-1.455,1.547
		c-0.17,0.059-0.17,0.299,0,0.356c0.742,0.255,1.226,0.81,1.457,1.548c0.041,0.136,0.186,0.133,0.18,0.132
		c0.082,0,0.154-0.054,0.18-0.133c0.172-0.554,0.473-0.979,0.896-1.271l0,0c0.463-0.315,0.689-0.227,0.689-0.453
		C65.055,73.773,65.002,73.702,64.925,73.676z"/>
	<path opacity="0.2" fill="#EAD786" enable-background="new    " d="M62.404,73.268c-0.006-0.002-0.01-0.004-0.016-0.007
		c-0.22,0.188-0.469,0.322-0.736,0.415c-0.17,0.059-0.17,0.299,0,0.356c0.742,0.255,1.226,0.81,1.457,1.548
		c0.041,0.136,0.186,0.133,0.18,0.132c0.268,0,0.124-0.317,0.566-0.912C63.62,74.061,63.136,73.518,62.404,73.268z"/>
	<path opacity="0.2" fill="#07A8F6" enable-background="new    " d="M62.398,65.068c-0.735-0.244-1.223-0.795-1.455-1.547
		c-0.043-0.139-0.188-0.138-0.18-0.133c-0.084,0-0.156,0.053-0.183,0.133c-0.229,0.729-0.707,1.289-1.457,1.545
		c-0.169,0.06-0.169,0.3,0,0.355c0.745,0.258,1.229,0.813,1.457,1.547c0.042,0.139,0.188,0.137,0.183,0.135
		c0.082,0,0.153-0.057,0.18-0.136c0.283-0.913,0.853-1.227,0.896-1.269c0.461-0.317,0.688-0.229,0.688-0.455
		C62.527,65.166,62.477,65.094,62.398,65.068z"/>
	<path opacity="0.2" fill="#1093C6" enable-background="new    " d="M59.807,64.699C59.287,65.115,59,64.998,59,65.246
		c0,0.08,0.051,0.152,0.127,0.179c0.745,0.255,1.227,0.812,1.457,1.548c0.042,0.135,0.186,0.133,0.18,0.131
		c0.254,0,0.133-0.295,0.532-0.861C60.884,64.967,59.898,64.76,59.807,64.699z"/>
</g>
<linearGradient id="SVGID_1_" gradientUnits="userSpaceOnUse" x1="41.4189" y1="69.1719" x2="41.4189" y2="13.001">
	<stop  offset="0" style="stop-color:#1D2C63"/>
	<stop  offset="1" style="stop-color:#40B1DD"/>
</linearGradient>
<path fill="url(#SVGID_1_)" d="M45.772,60.097c-1.209,0.204-2.593,0.297-4.354,0.297c-3.517,0-6.902-0.684-10.063-2.032
	c-0.559-0.237-1.191-0.233-1.747,0.011l-10.021,4.417l3.441-8.512c0.307-0.758,0.166-1.623-0.364-2.246
	c-3.233-3.792-4.942-8.337-4.942-13.14c0-11.856,10.631-21.502,23.697-21.502c13.066,0,23.697,9.646,23.697,21.502
	c0,1.77-0.158,3.289-0.486,4.639c-0.285,1.178,0.438,2.365,1.615,2.649c1.178,0.286,2.364-0.438,2.649-1.615
	c0.411-1.694,0.61-3.55,0.61-5.673c0-6.953-2.946-13.479-8.296-18.374C55.912,15.669,48.885,13,41.419,13
	c-7.465,0-14.494,2.668-19.79,7.517c-5.349,4.896-8.296,11.421-8.296,18.374c0,5.422,1.774,10.561,5.143,14.939l-4.983,12.325
	c-0.333,0.827-0.133,1.776,0.508,2.397c0.418,0.404,0.969,0.619,1.528,0.619c0.299,0,0.601-0.062,0.885-0.188l14.115-6.221
	c3.449,1.341,7.109,2.02,10.891,2.02c2.011,0,3.627-0.114,5.083-0.359c1.194-0.202,2-1.333,1.799-2.528S46.967,59.895,45.772,60.097
	z"/>
<linearGradient id="SVGID_2_" gradientUnits="userSpaceOnUse" x1="41.4873" y1="51.4961" x2="41.4873" y2="23.9639">
	<stop  offset="0" style="stop-color:#1D2C63"/>
	<stop  offset="1" style="stop-color:#40B1DD"/>
</linearGradient>
<path fill="url(#SVGID_2_)" d="M43.792,49.191c0-1.271-1.031-2.303-2.305-2.303c-1.272,0-2.304,1.031-2.304,2.303
	c0,1.273,1.031,2.305,2.304,2.305C42.761,51.496,43.792,50.465,43.792,49.191z M43.792,41.129v-1.612
	c0-0.13,0.075-0.254,0.175-0.287c3.281-1.093,5.48-4.274,5.349-7.735c-0.154-4.065-3.459-7.371-7.524-7.525
	c-2.15-0.082-4.188,0.694-5.736,2.184c-1.548,1.492-2.401,3.495-2.401,5.645c0,1.272,1.031,2.304,2.304,2.304
	c1.273,0,2.305-1.032,2.305-2.304c0-0.885,0.351-1.711,0.988-2.325c0.637-0.613,1.478-0.933,2.365-0.898
	c1.673,0.063,3.032,1.423,3.096,3.095c0.054,1.427-0.851,2.739-2.202,3.189c-1.989,0.663-3.325,2.535-3.325,4.658v1.612
	c0,1.271,1.031,2.303,2.304,2.303C42.761,43.432,43.792,42.4,43.792,41.129z"/>
<linearGradient id="SVGID_3_" gradientUnits="userSpaceOnUse" x1="59.3125" y1="65.4766" x2="59.3125" y2="43.4668">
	<stop  offset="0" style="stop-color:#1D2C63"/>
	<stop  offset="1" style="stop-color:#40B1DD"/>
</linearGradient>
<path fill="url(#SVGID_3_)" d="M59.311,43.467c-3.033,0-5.502,2.424-5.502,5.403v2.183c-1.906,0.269-3.379,1.911-3.379,3.891v8.961
	c0,0.868,0.704,1.572,1.573,1.572h14.619c0.87,0,1.573-0.704,1.573-1.572v-8.961c0-1.98-1.473-3.623-3.382-3.892V48.87
	C64.813,45.891,62.346,43.467,59.311,43.467z M59.311,46.61c1.301,0,2.358,1.014,2.358,2.26v2.143h-4.717V48.87
	C56.952,47.624,58.012,46.61,59.311,46.61z M65.052,54.943v7.39H53.573v-7.39c0-0.434,0.354-0.786,0.787-0.786h9.906
	C64.699,54.157,65.052,54.51,65.052,54.943z M60.886,58.245c0,0.867-0.704,1.572-1.573,1.572c-0.868,0-1.572-0.705-1.572-1.572
	c0-0.868,0.704-1.573,1.572-1.573C60.182,56.672,60.886,57.377,60.886,58.245z"/>
</svg>
