<?xml version="1.0" encoding="utf-8"?>
<!-- Generator: Adobe Illustrator 16.0.0, SVG Export Plug-In . SVG Version: 6.00 Build 0)  -->
<!DOCTYPE svg PUBLIC "-//W3C//DTD SVG 1.1//EN" "http://www.w3.org/Graphics/SVG/1.1/DTD/svg11.dtd">
<svg version="1.1" id="Layer_1" xmlns="http://www.w3.org/2000/svg" xmlns:xlink="http://www.w3.org/1999/xlink" x="0px" y="0px"
	 width="80px" height="80px" viewBox="0 0 80 80" enable-background="new 0 0 80 80" xml:space="preserve">
<g>
	<g opacity="0.2">
		<path id="SVGCleanerId_0_4_" fill="#094B88" d="M16.584,57.162c-0.324-0.061-0.638-0.141-0.934-0.238
			c-2.164-0.729-3.387-2.496-3.79-4.773c-0.038-0.215-0.35-0.215-0.388,0c-0.467,2.646-2.025,4.52-4.709,5.018
			c-0.214,0.04-0.214,0.35,0,0.389c2.66,0.49,4.245,2.356,4.711,4.981c0.028,0.166,0.204,0.166,0.193,0.162
			c0.095,0,0.176-0.069,0.193-0.162c0.238-1.354,0.904-3.192,2.731-4.269c0.584-0.344,1.254-0.584,1.993-0.721
			c0.093-0.018,0.161-0.099,0.161-0.193C16.746,57.26,16.678,57.18,16.584,57.162z"/>
	</g>
	<path opacity="0.2" fill="#093D63" enable-background="new    " d="M8.819,56.398c-0.63,0.386-1.33,0.632-2.056,0.767
		c-0.214,0.04-0.214,0.349,0,0.387c2.66,0.492,4.245,2.358,4.711,4.983c0.028,0.166,0.204,0.166,0.193,0.162
		c0.095,0,0.176-0.069,0.193-0.162c0.131-0.75,0.395-1.646,0.914-2.48C12.072,58.096,10.729,56.877,8.819,56.398z"/>
	<path opacity="0.2" fill="#F7E7A1" enable-background="new    " d="M7.942,62.266c-0.766-0.254-1.272-0.824-1.519-1.609
		c-0.044-0.145-0.194-0.143-0.188-0.141c-0.086,0-0.163,0.055-0.188,0.141C5.808,61.417,5.309,62,4.529,62.266
		c-0.177,0.063-0.177,0.313,0,0.373c0.774,0.268,1.278,0.844,1.519,1.612c0.044,0.142,0.193,0.14,0.188,0.138
		c0.086,0,0.162-0.056,0.188-0.139c0.178-0.576,0.492-1.021,0.934-1.323l0,0c0.482-0.329,0.719-0.233,0.719-0.474
		C8.076,62.368,8.022,62.293,7.942,62.266z"/>
	<path opacity="0.2" fill="#EAD786" enable-background="new    " d="M5.313,61.839c-0.005-0.002-0.01-0.005-0.016-0.007
		c-0.227,0.193-0.486,0.337-0.769,0.434c-0.177,0.063-0.177,0.313,0,0.373c0.774,0.268,1.278,0.844,1.519,1.612
		c0.044,0.142,0.193,0.14,0.188,0.138c0.277,0,0.13-0.33,0.591-0.951C6.582,62.666,6.076,62.1,5.313,61.839z"/>
	<path opacity="0.2" fill="#07A8F6" enable-background="new    " d="M5.309,53.29c-0.769-0.255-1.273-0.828-1.519-1.613
		c-0.044-0.142-0.193-0.14-0.188-0.138c-0.085,0-0.162,0.057-0.188,0.138c-0.238,0.763-0.736,1.345-1.518,1.613
		c-0.177,0.062-0.177,0.312,0,0.371c0.777,0.267,1.278,0.847,1.519,1.612c0.044,0.143,0.193,0.141,0.188,0.14
		c0.086,0,0.162-0.058,0.188-0.14c0.295-0.953,0.889-1.278,0.934-1.322c0.481-0.33,0.72-0.237,0.72-0.475
		C5.443,53.393,5.389,53.316,5.309,53.29z"/>
	<path opacity="0.2" fill="#1093C6" enable-background="new    " d="M2.604,52.905c-0.542,0.434-0.841,0.313-0.841,0.569
		c0,0.084,0.054,0.156,0.133,0.187c0.777,0.267,1.278,0.847,1.519,1.612c0.044,0.143,0.193,0.141,0.188,0.14
		c0.263,0,0.137-0.31,0.555-0.902C3.728,53.186,2.702,52.969,2.604,52.905z"/>
</g>
<g>
	<g opacity="0.2">
		<path id="SVGCleanerId_0_3_" fill="#094B88" d="M46.896,8.585c-0.281-0.051-0.559-0.121-0.813-0.208
			c-1.883-0.633-2.946-2.171-3.297-4.151c-0.033-0.188-0.306-0.188-0.338,0c-0.406,2.301-1.761,3.929-4.097,4.362
			c-0.186,0.034-0.186,0.302,0,0.336c2.314,0.428,3.693,2.052,4.098,4.335c0.025,0.145,0.179,0.145,0.169,0.142
			c0.082,0,0.153-0.061,0.168-0.142c0.207-1.178,0.787-2.777,2.377-3.71c0.508-0.298,1.091-0.509,1.731-0.627
			c0.082-0.015,0.142-0.086,0.142-0.168S46.977,8.6,46.896,8.585z"/>
	</g>
	<path opacity="0.2" fill="#093D63" enable-background="new    " d="M40.14,7.921c-0.548,0.335-1.156,0.549-1.789,0.667
		c-0.186,0.034-0.186,0.302,0,0.336c2.314,0.428,3.693,2.052,4.098,4.335c0.025,0.145,0.179,0.145,0.169,0.142
		c0.082,0,0.153-0.061,0.168-0.142c0.114-0.652,0.344-1.433,0.795-2.158C42.971,9.398,41.8,8.338,40.14,7.921z"/>
	<path opacity="0.2" fill="#F7E7A1" enable-background="new    " d="M39.376,13.026c-0.666-0.221-1.106-0.717-1.321-1.402
		c-0.038-0.124-0.169-0.123-0.163-0.121c-0.075,0-0.141,0.049-0.164,0.121c-0.207,0.663-0.642,1.17-1.32,1.403
		c-0.154,0.052-0.154,0.271,0,0.324c0.675,0.231,1.112,0.734,1.32,1.403c0.04,0.124,0.169,0.121,0.164,0.12
		c0.075,0,0.142-0.049,0.163-0.12c0.156-0.501,0.43-0.889,0.813-1.151l0,0c0.42-0.287,0.625-0.205,0.625-0.412
		C39.493,13.115,39.446,13.05,39.376,13.026z"/>
	<path opacity="0.2" fill="#EAD786" enable-background="new    " d="M37.089,12.655c-0.003-0.002-0.009-0.004-0.013-0.006
		c-0.197,0.169-0.423,0.292-0.668,0.377c-0.154,0.052-0.154,0.271,0,0.324c0.675,0.231,1.112,0.734,1.32,1.403
		c0.04,0.124,0.169,0.121,0.164,0.12c0.242,0,0.113-0.288,0.515-0.827C38.193,13.375,37.752,12.881,37.089,12.655z"/>
	<path opacity="0.2" fill="#07A8F6" enable-background="new    " d="M37.085,5.217c-0.67-0.221-1.107-0.72-1.321-1.403
		c-0.038-0.123-0.168-0.122-0.163-0.12c-0.075,0-0.142,0.048-0.164,0.12c-0.206,0.661-0.64,1.169-1.322,1.402
		c-0.153,0.053-0.153,0.271,0,0.324c0.677,0.231,1.113,0.736,1.323,1.404c0.038,0.123,0.168,0.121,0.163,0.12
		c0.075,0,0.142-0.049,0.163-0.12c0.257-0.83,0.773-1.113,0.812-1.151c0.42-0.288,0.626-0.206,0.626-0.413
		C37.202,5.305,37.154,5.24,37.085,5.217z"/>
	<path opacity="0.2" fill="#1093C6" enable-background="new    " d="M34.733,4.882C34.26,5.26,34,5.154,34,5.378
		c0,0.074,0.047,0.139,0.115,0.162c0.677,0.231,1.113,0.736,1.323,1.404c0.038,0.123,0.168,0.121,0.163,0.12
		c0.229,0,0.119-0.268,0.483-0.784C35.709,5.125,34.817,4.937,34.733,4.882z"/>
</g>
<g>
	<g opacity="0.2">
		<path id="SVGCleanerId_0_2_" fill="#094B88" d="M73.214,68.781c-0.312-0.057-0.61-0.135-0.896-0.229
			c-2.074-0.698-3.248-2.394-3.635-4.577c-0.037-0.207-0.336-0.207-0.371,0c-0.449,2.537-1.941,4.332-4.521,4.812
			c-0.205,0.038-0.205,0.334,0,0.371c2.552,0.473,4.069,2.263,4.521,4.776c0.025,0.159,0.194,0.159,0.187,0.156
			c0.092-0.001,0.17-0.066,0.187-0.156c0.229-1.299,0.866-3.062,2.619-4.091c0.559-0.329,1.202-0.561,1.91-0.69
			c0.09-0.018,0.154-0.096,0.154-0.188C73.369,68.876,73.305,68.798,73.214,68.781z"/>
	</g>
	<path opacity="0.2" fill="#093D63" enable-background="new    " d="M65.768,68.049c-0.604,0.37-1.273,0.605-1.973,0.735
		c-0.205,0.038-0.205,0.334,0,0.371c2.553,0.473,4.071,2.263,4.52,4.778c0.026,0.157,0.195,0.157,0.188,0.154
		c0.092-0.001,0.17-0.064,0.188-0.154c0.127-0.721,0.379-1.58,0.877-2.379C68.886,69.677,67.598,68.509,65.768,68.049z"/>
	<path opacity="0.2" fill="#F7E7A1" enable-background="new    " d="M64.925,73.676c-0.733-0.242-1.22-0.79-1.456-1.546
		c-0.042-0.136-0.186-0.135-0.18-0.133c-0.083,0-0.156,0.054-0.182,0.132c-0.229,0.73-0.707,1.291-1.455,1.547
		c-0.17,0.059-0.17,0.299,0,0.356c0.742,0.255,1.226,0.81,1.457,1.548c0.041,0.136,0.186,0.133,0.18,0.132
		c0.082,0,0.154-0.054,0.18-0.133c0.172-0.554,0.473-0.979,0.896-1.271l0,0c0.463-0.315,0.689-0.227,0.689-0.453
		C65.055,73.773,65.002,73.702,64.925,73.676z"/>
	<path opacity="0.2" fill="#EAD786" enable-background="new    " d="M62.404,73.268c-0.006-0.002-0.01-0.004-0.016-0.007
		c-0.22,0.188-0.469,0.322-0.736,0.415c-0.17,0.059-0.17,0.299,0,0.356c0.742,0.255,1.226,0.81,1.457,1.548
		c0.041,0.136,0.186,0.133,0.18,0.132c0.268,0,0.124-0.317,0.566-0.912C63.62,74.061,63.136,73.518,62.404,73.268z"/>
	<path opacity="0.2" fill="#07A8F6" enable-background="new    " d="M62.398,65.068c-0.735-0.244-1.223-0.795-1.455-1.547
		c-0.043-0.139-0.188-0.138-0.18-0.133c-0.084,0-0.156,0.053-0.183,0.133c-0.229,0.729-0.707,1.289-1.457,1.545
		c-0.169,0.06-0.169,0.3,0,0.355c0.745,0.258,1.229,0.813,1.457,1.547c0.042,0.139,0.188,0.137,0.183,0.135
		c0.082,0,0.153-0.057,0.18-0.136c0.283-0.913,0.853-1.227,0.896-1.269c0.461-0.317,0.688-0.229,0.688-0.455
		C62.527,65.166,62.477,65.094,62.398,65.068z"/>
	<path opacity="0.2" fill="#1093C6" enable-background="new    " d="M59.807,64.699C59.287,65.115,59,64.998,59,65.246
		c0,0.08,0.051,0.152,0.127,0.179c0.745,0.255,1.227,0.812,1.457,1.548c0.042,0.135,0.186,0.133,0.18,0.131
		c0.254,0,0.133-0.295,0.532-0.861C60.884,64.967,59.898,64.76,59.807,64.699z"/>
</g>
<linearGradient id="SVGID_1_" gradientUnits="userSpaceOnUse" x1="42.7227" y1="64.4473" x2="42.7227" y2="12.334">
	<stop  offset="0" style="stop-color:#1D2C63"/>
	<stop  offset="1" style="stop-color:#40B1DD"/>
</linearGradient>
<path fill="url(#SVGID_1_)" d="M69.231,41.318c1.029-0.209,1.77-1.115,1.77-2.166v-5.634c0-4.873-3.964-8.837-8.837-8.837H23.282
	c-0.639,0-1.263,0.07-1.863,0.2c0.283-0.13,0.582-0.232,0.897-0.303l34.544-7.74c1.794-0.389,3.632,0.544,4.373,2.22
	c0.492,1.115,1.797,1.62,2.913,1.127c1.116-0.493,1.621-1.797,1.128-2.913c-1.586-3.588-5.522-5.586-9.359-4.75
	c-0.004,0-0.009,0.001-0.013,0.003L21.35,20.268c-1.952,0.438-3.715,1.538-4.966,3.1c-1.25,1.561-1.938,3.523-1.938,5.523v10.262
	c0,1.051,0.74,1.957,1.77,2.166c1.535,0.311,2.649,1.677,2.649,3.246c0,1.57-1.114,2.936-2.649,3.248
	c-1.029,0.209-1.77,1.114-1.77,2.166v5.633c0,4.872,3.964,8.836,8.837,8.836h38.882c4.873,0,8.837-3.964,8.837-8.836v-5.633
	c0-1.052-0.74-1.957-1.77-2.166c-1.535-0.313-2.648-1.678-2.648-3.248C66.583,42.995,67.696,41.629,69.231,41.318z M66.583,37.579
	c-2.641,1.257-4.419,3.959-4.419,6.986c0,3.027,1.778,5.729,4.419,6.986v4.061c0,2.436-1.982,4.418-4.419,4.418h-5.412
	c0-1.221-0.989-2.209-2.209-2.209c-1.221,0-2.21,0.988-2.21,2.209H23.282c-2.436,0-4.418-1.982-4.418-4.418v-4.061
	c2.641-1.257,4.418-3.959,4.418-6.986c0-3.026-1.777-5.729-4.418-6.986v-4.06c0-2.437,1.982-4.418,4.418-4.418h29.051
	c0,1.221,0.989,2.209,2.21,2.209c1.22,0,2.209-0.989,2.209-2.209h5.412c2.437,0,4.419,1.982,4.419,4.418V37.579z M56.752,36.833
	c0,1.22-0.989,2.209-2.209,2.209c-1.221,0-2.21-0.989-2.21-2.209s0.989-2.209,2.21-2.209C55.763,34.624,56.752,35.612,56.752,36.833
	z M56.752,44.564c0,1.221-0.989,2.209-2.209,2.209c-1.221,0-2.21-0.988-2.21-2.209c0-1.22,0.989-2.209,2.21-2.209
	C55.763,42.355,56.752,43.345,56.752,44.564z M56.752,52.297c0,1.221-0.989,2.209-2.209,2.209c-1.221,0-2.21-0.988-2.21-2.209
	c0-1.22,0.989-2.209,2.21-2.209C55.763,50.088,56.752,51.077,56.752,52.297z"/>
<linearGradient id="SVGID_2_" gradientUnits="userSpaceOnUse" x1="39.0015" y1="52.6787" x2="39.0015" y2="34">
	<stop  offset="0" style="stop-color:#1D2C63"/>
	<stop  offset="1" style="stop-color:#40B1DD"/>
</linearGradient>
<path fill="url(#SVGID_2_)" d="M37.183,52.667c1.621-0.109,3.134-0.896,4.151-2.162c0.027-0.033,0.053-0.067,0.077-0.103
	l9.168-12.822c0.727-1.017,0.492-2.431-0.524-3.159c-1.018-0.727-2.432-0.492-3.16,0.525l-9.122,12.758
	c-0.305,0.353-0.687,0.43-0.891,0.442c-0.213,0.015-0.62-0.013-0.977-0.353c-0.009-0.009-0.018-0.017-0.027-0.025l-5.079-4.681
	c-0.919-0.848-2.352-0.788-3.2,0.131c-0.847,0.92-0.789,2.353,0.13,3.2l5.067,4.669c1.082,1.022,2.521,1.59,4.002,1.59
	C36.927,52.68,37.055,52.675,37.183,52.667z"/>
</svg>
