<?xml version="1.0" encoding="utf-8"?>
<!-- Generator: Adobe Illustrator 16.0.0, SVG Export Plug-In . SVG Version: 6.00 Build 0)  -->
<!DOCTYPE svg PUBLIC "-//W3C//DTD SVG 1.1//EN" "http://www.w3.org/Graphics/SVG/1.1/DTD/svg11.dtd">
<svg version="1.1" id="Layer_1" xmlns="http://www.w3.org/2000/svg" xmlns:xlink="http://www.w3.org/1999/xlink" x="0px" y="0px"
	 width="80px" height="80px" viewBox="0 0 80 80" enable-background="new 0 0 80 80" xml:space="preserve">
<g>
	<g opacity="0.2">
		<path id="SVGCleanerId_0_4_" fill="#094B88" d="M16.584,57.162c-0.324-0.061-0.638-0.141-0.934-0.238
			c-2.164-0.729-3.387-2.496-3.79-4.773c-0.038-0.215-0.35-0.215-0.388,0c-0.467,2.646-2.025,4.521-4.709,5.019
			c-0.214,0.04-0.214,0.351,0,0.39c2.66,0.489,4.245,2.355,4.711,4.98c0.028,0.166,0.204,0.166,0.193,0.162
			c0.095,0,0.176-0.069,0.193-0.162c0.238-1.354,0.904-3.191,2.731-4.27c0.584-0.344,1.254-0.584,1.993-0.721
			c0.093-0.018,0.161-0.099,0.161-0.193C16.746,57.26,16.678,57.18,16.584,57.162z"/>
	</g>
	<path opacity="0.2" fill="#093D63" enable-background="new    " d="M8.819,56.398c-0.63,0.386-1.33,0.632-2.056,0.767
		c-0.214,0.04-0.214,0.349,0,0.387c2.66,0.492,4.245,2.358,4.711,4.983c0.028,0.166,0.204,0.166,0.193,0.162
		c0.095,0,0.176-0.069,0.193-0.162c0.131-0.75,0.395-1.646,0.914-2.48C12.072,58.096,10.729,56.877,8.819,56.398z"/>
	<path opacity="0.2" fill="#F7E7A1" enable-background="new    " d="M7.942,62.266c-0.766-0.254-1.272-0.824-1.519-1.608
		c-0.044-0.146-0.194-0.144-0.188-0.142c-0.086,0-0.163,0.055-0.188,0.142C5.808,61.417,5.309,62,4.529,62.266
		c-0.177,0.063-0.177,0.313,0,0.373c0.774,0.269,1.278,0.844,1.519,1.612c0.044,0.142,0.193,0.14,0.188,0.138
		c0.086,0,0.162-0.056,0.188-0.139c0.178-0.576,0.492-1.021,0.934-1.323l0,0c0.482-0.329,0.719-0.233,0.719-0.474
		C8.076,62.368,8.022,62.293,7.942,62.266z"/>
	<path opacity="0.2" fill="#EAD786" enable-background="new    " d="M5.313,61.839c-0.005-0.002-0.01-0.005-0.016-0.007
		c-0.227,0.193-0.486,0.337-0.769,0.434c-0.177,0.063-0.177,0.313,0,0.373c0.774,0.269,1.278,0.844,1.519,1.612
		c0.044,0.142,0.193,0.14,0.188,0.138c0.277,0,0.13-0.33,0.591-0.951C6.582,62.666,6.076,62.1,5.313,61.839z"/>
	<path opacity="0.2" fill="#07A8F6" enable-background="new    " d="M5.309,53.29c-0.769-0.255-1.273-0.828-1.519-1.613
		c-0.044-0.142-0.193-0.14-0.188-0.138c-0.085,0-0.162,0.057-0.188,0.138c-0.238,0.763-0.736,1.345-1.518,1.613
		c-0.177,0.062-0.177,0.312,0,0.371c0.777,0.267,1.278,0.847,1.519,1.612c0.044,0.143,0.193,0.141,0.188,0.14
		c0.086,0,0.162-0.058,0.188-0.14c0.295-0.953,0.889-1.278,0.934-1.322c0.481-0.33,0.72-0.237,0.72-0.475
		C5.443,53.393,5.389,53.316,5.309,53.29z"/>
	<path opacity="0.2" fill="#1093C6" enable-background="new    " d="M2.604,52.905c-0.542,0.434-0.841,0.313-0.841,0.569
		c0,0.084,0.054,0.155,0.133,0.187c0.777,0.267,1.278,0.847,1.519,1.612c0.044,0.143,0.193,0.141,0.188,0.14
		c0.263,0,0.137-0.31,0.555-0.902C3.728,53.186,2.702,52.969,2.604,52.905z"/>
</g>
<g>
	<g opacity="0.2">
		<path id="SVGCleanerId_0_3_" fill="#094B88" d="M46.896,8.585c-0.281-0.051-0.56-0.121-0.813-0.208
			c-1.883-0.633-2.946-2.171-3.297-4.151c-0.033-0.188-0.306-0.188-0.338,0c-0.406,2.301-1.761,3.929-4.097,4.362
			c-0.186,0.034-0.186,0.302,0,0.336c2.314,0.428,3.693,2.052,4.098,4.335c0.025,0.145,0.179,0.145,0.169,0.142
			c0.082,0,0.153-0.061,0.168-0.142c0.207-1.178,0.787-2.777,2.377-3.71c0.508-0.298,1.091-0.509,1.731-0.627
			c0.082-0.015,0.142-0.086,0.142-0.168S46.977,8.6,46.896,8.585z"/>
	</g>
	<path opacity="0.2" fill="#093D63" enable-background="new    " d="M40.14,7.921c-0.548,0.335-1.156,0.549-1.789,0.667
		c-0.186,0.034-0.186,0.302,0,0.336c2.314,0.428,3.693,2.052,4.098,4.335c0.025,0.145,0.179,0.145,0.169,0.142
		c0.082,0,0.153-0.061,0.168-0.142c0.114-0.652,0.344-1.433,0.795-2.158C42.971,9.398,41.8,8.338,40.14,7.921z"/>
	<path opacity="0.2" fill="#F7E7A1" enable-background="new    " d="M39.376,13.026c-0.666-0.221-1.106-0.717-1.321-1.402
		c-0.038-0.124-0.169-0.123-0.163-0.121c-0.075,0-0.141,0.049-0.164,0.121c-0.207,0.663-0.642,1.17-1.32,1.403
		c-0.154,0.052-0.154,0.271,0,0.324c0.675,0.231,1.112,0.734,1.32,1.403c0.04,0.124,0.169,0.121,0.164,0.12
		c0.075,0,0.142-0.049,0.163-0.12c0.156-0.501,0.43-0.889,0.813-1.151l0,0c0.42-0.287,0.625-0.205,0.625-0.412
		C39.493,13.115,39.446,13.05,39.376,13.026z"/>
	<path opacity="0.2" fill="#EAD786" enable-background="new    " d="M37.089,12.655c-0.003-0.002-0.009-0.004-0.013-0.006
		c-0.197,0.169-0.423,0.292-0.668,0.377c-0.154,0.052-0.154,0.271,0,0.324c0.675,0.231,1.112,0.734,1.32,1.403
		c0.04,0.124,0.169,0.121,0.164,0.12c0.242,0,0.113-0.288,0.515-0.827C38.193,13.375,37.752,12.881,37.089,12.655z"/>
	<path opacity="0.2" fill="#07A8F6" enable-background="new    " d="M37.085,5.217c-0.67-0.221-1.107-0.72-1.321-1.403
		c-0.038-0.123-0.168-0.122-0.163-0.12c-0.075,0-0.142,0.048-0.164,0.12c-0.206,0.661-0.64,1.169-1.322,1.402
		c-0.153,0.053-0.153,0.271,0,0.324c0.677,0.231,1.113,0.736,1.323,1.404c0.038,0.123,0.168,0.121,0.163,0.12
		c0.075,0,0.142-0.049,0.163-0.12c0.257-0.83,0.773-1.113,0.812-1.151c0.42-0.288,0.626-0.206,0.626-0.413
		C37.202,5.305,37.154,5.24,37.085,5.217z"/>
	<path opacity="0.2" fill="#1093C6" enable-background="new    " d="M34.733,4.882C34.26,5.26,34,5.154,34,5.378
		c0,0.074,0.047,0.139,0.115,0.162c0.677,0.231,1.113,0.736,1.323,1.404c0.038,0.123,0.168,0.121,0.163,0.12
		c0.229,0,0.119-0.268,0.483-0.784C35.709,5.125,34.817,4.937,34.733,4.882z"/>
</g>
<g>
	<g opacity="0.2">
		<path id="SVGCleanerId_0_2_" fill="#094B88" d="M73.214,68.781c-0.312-0.057-0.61-0.135-0.896-0.229
			c-2.074-0.698-3.248-2.394-3.635-4.577c-0.037-0.207-0.336-0.207-0.371,0c-0.449,2.537-1.941,4.332-4.521,4.813
			c-0.205,0.038-0.205,0.334,0,0.371c2.552,0.473,4.068,2.263,4.521,4.775c0.024,0.159,0.193,0.159,0.187,0.156
			c0.092-0.001,0.17-0.066,0.187-0.156c0.229-1.299,0.866-3.062,2.619-4.091c0.559-0.329,1.202-0.561,1.91-0.69
			c0.09-0.018,0.154-0.096,0.154-0.188C73.369,68.876,73.305,68.798,73.214,68.781z"/>
	</g>
	<path opacity="0.2" fill="#093D63" enable-background="new    " d="M65.768,68.049c-0.604,0.37-1.272,0.605-1.973,0.735
		c-0.205,0.038-0.205,0.334,0,0.371c2.553,0.473,4.071,2.263,4.52,4.778c0.026,0.156,0.195,0.156,0.188,0.153
		c0.093-0.001,0.17-0.063,0.188-0.153c0.127-0.722,0.379-1.58,0.877-2.379C68.886,69.677,67.598,68.509,65.768,68.049z"/>
	<path opacity="0.2" fill="#F7E7A1" enable-background="new    " d="M64.925,73.676c-0.733-0.242-1.22-0.79-1.456-1.546
		c-0.042-0.136-0.186-0.135-0.18-0.133c-0.083,0-0.156,0.054-0.182,0.132c-0.229,0.73-0.707,1.291-1.455,1.547
		c-0.17,0.059-0.17,0.299,0,0.356c0.742,0.255,1.226,0.81,1.457,1.548c0.041,0.136,0.186,0.133,0.18,0.132
		c0.082,0,0.154-0.054,0.18-0.133c0.172-0.554,0.473-0.979,0.896-1.271l0,0c0.463-0.315,0.689-0.228,0.689-0.453
		C65.055,73.773,65.002,73.702,64.925,73.676z"/>
	<path opacity="0.2" fill="#EAD786" enable-background="new    " d="M62.404,73.268c-0.006-0.002-0.01-0.004-0.016-0.007
		c-0.221,0.188-0.47,0.322-0.736,0.415c-0.17,0.059-0.17,0.299,0,0.356c0.742,0.255,1.226,0.81,1.457,1.548
		c0.041,0.136,0.186,0.133,0.18,0.132c0.268,0,0.124-0.317,0.566-0.912C63.62,74.061,63.136,73.518,62.404,73.268z"/>
	<path opacity="0.2" fill="#07A8F6" enable-background="new    " d="M62.398,65.068c-0.735-0.244-1.224-0.795-1.455-1.547
		c-0.043-0.14-0.188-0.139-0.18-0.133c-0.084,0-0.156,0.053-0.184,0.133c-0.229,0.729-0.707,1.289-1.457,1.545
		c-0.169,0.06-0.169,0.3,0,0.354c0.745,0.259,1.229,0.813,1.457,1.547c0.042,0.14,0.188,0.138,0.184,0.136
		c0.082,0,0.152-0.058,0.18-0.137c0.283-0.912,0.853-1.227,0.896-1.269c0.461-0.317,0.688-0.229,0.688-0.455
		C62.527,65.166,62.477,65.094,62.398,65.068z"/>
	<path opacity="0.2" fill="#1093C6" enable-background="new    " d="M59.807,64.699C59.287,65.115,59,64.998,59,65.246
		c0,0.08,0.051,0.152,0.127,0.179c0.745,0.255,1.227,0.812,1.457,1.548c0.042,0.135,0.186,0.133,0.18,0.131
		c0.254,0,0.133-0.295,0.532-0.86C60.884,64.967,59.898,64.76,59.807,64.699z"/>
</g>
<linearGradient id="SVGID_1_" gradientUnits="userSpaceOnUse" x1="41" y1="14.667" x2="41" y2="72.6675">
	<stop  offset="0" style="stop-color:#1D2C63"/>
	<stop  offset="1" style="stop-color:#40B1DD"/>
</linearGradient>
<path fill="url(#SVGID_1_)" d="M43.152,55.222L43.152,55.222c0,1.251-1.014,2.267-2.266,2.267l0,0c-1.251,0-2.265-1.016-2.265-2.267
	l0,0c0-1.251,1.014-2.266,2.265-2.266l0,0C42.139,52.956,43.152,53.971,43.152,55.222z M43.265,47.972v-0.146
	c0-0.733,0.419-1.388,1.069-1.664c3.137-1.34,5.163-4.409,5.162-7.82c0-0.032-0.001-0.064-0.002-0.096
	c-0.052-4.64-3.843-8.398-8.495-8.398c-4.685,0-8.495,3.811-8.495,8.496c0,1.251,1.014,2.265,2.265,2.265
	c1.251,0,2.265-1.014,2.265-2.265c0-2.186,1.779-3.964,3.964-3.964s3.964,1.779,3.964,3.964c0,0.022,0,0.044,0.001,0.066
	c-0.024,1.566-0.965,2.968-2.409,3.585c-2.321,0.99-3.82,3.279-3.82,5.831v0.146c0,1.252,1.014,2.266,2.265,2.266
	S43.265,49.224,43.265,47.972z M48.93,65.87v-1.142c0-0.3,0.189-0.572,0.482-0.693l0.041-0.016c0.293-0.123,0.62-0.064,0.833,0.147
	l0.806,0.807c2.651,2.65,6.963,2.65,9.613,0c0.885-0.885,0.885-2.318,0-3.204c-0.884-0.884-2.318-0.884-3.204,0
	c-0.884,0.884-2.32,0.884-3.203,0l-0.808-0.807c-1.514-1.515-3.78-1.957-5.779-1.126l-0.029,0.012
	c-1.994,0.823-3.284,2.739-3.284,4.88v1.142c0,1.249-1.016,2.266-2.265,2.266h-2.266c-1.249,0-2.265-1.017-2.265-2.266v-1.142
	c0-2.141-1.29-4.057-3.284-4.88l-0.034-0.015c-1.994-0.828-4.261-0.386-5.775,1.129l-0.807,0.807c-0.884,0.884-2.321,0.884-3.204,0
	l-1.602-1.602c-0.428-0.429-0.664-0.997-0.664-1.602c0-0.605,0.236-1.174,0.664-1.603l0.807-0.807
	c1.515-1.514,1.958-3.781,1.131-5.771l-0.015-0.037c-0.824-1.994-2.74-3.283-4.882-3.283h-1.141c-1.249,0-2.266-1.017-2.266-2.266
	v-2.266c0-1.249,1.017-2.266,2.266-2.266h1.141c2.142,0,4.058-1.289,4.881-3.283l0.014-0.034c0.829-1.994,0.385-4.261-1.129-5.775
	l-0.807-0.807c-0.883-0.884-0.883-2.321,0-3.204l1.602-1.602c0.428-0.428,0.997-0.664,1.602-0.664c0.605,0,1.175,0.236,1.603,0.664
	l0.807,0.807c1.514,1.514,3.781,1.958,5.78,1.127l0.028-0.012c1.994-0.824,3.284-2.74,3.284-4.881v-1.141
	c0-1.249,1.016-2.266,2.265-2.266h2.266c1.249,0,2.265,1.017,2.265,2.266v1.141c0,2.142,1.29,4.058,3.283,4.881l0.034,0.014
	c1.995,0.829,4.262,0.385,5.775-1.129l0.808-0.807c0.428-0.428,0.996-0.665,1.602-0.665s1.174,0.236,1.602,0.665l1.602,1.602
	c0.884,0.883,0.884,2.32,0,3.204l-0.807,0.807c-1.515,1.514-1.957,3.781-1.128,5.775l0.014,0.033
	c0.822,1.994,2.738,3.283,4.88,3.283h1.142c1.249,0,2.266,1.017,2.266,2.266V44.8c0,1.249-1.017,2.266-2.266,2.266h-1.142
	c-2.142,0-4.058,1.289-4.88,3.282l-0.014,0.034c-0.828,1.994-0.386,4.262,1.129,5.775c0.885,0.885,2.318,0.885,3.204,0
	c0.885-0.885,0.885-2.32-0.001-3.204c-0.212-0.213-0.271-0.54-0.146-0.836l0.016-0.039c0.121-0.292,0.393-0.481,0.692-0.481h1.142
	c3.748,0,6.797-3.049,6.797-6.797v-2.266c0-3.748-3.049-6.797-6.797-6.797h-1.142c-0.3,0-0.572-0.189-0.692-0.482l-0.017-0.041
	c-0.123-0.294-0.064-0.621,0.147-0.833l0.807-0.807c2.65-2.65,2.65-6.962,0-9.612l-1.602-1.602
	c-1.284-1.284-2.991-1.991-4.806-1.991c-1.816,0-3.523,0.707-4.808,1.991l-0.806,0.807c-0.213,0.212-0.54,0.271-0.828,0.15
	l-0.047-0.019c-0.292-0.121-0.481-0.393-0.481-0.693v-1.141c0-3.748-3.049-6.797-6.797-6.797h-2.266
	c-3.748,0-6.797,3.049-6.797,6.797v1.141c0,0.3-0.189,0.572-0.482,0.693l-0.041,0.017c-0.293,0.122-0.621,0.063-0.833-0.148
	l-0.807-0.807c-1.284-1.284-2.99-1.991-4.807-1.991c-1.815,0-3.522,0.707-4.806,1.991l-1.602,1.602c-2.65,2.65-2.65,6.962,0,9.612
	l0.807,0.807c0.212,0.212,0.27,0.54,0.148,0.833l-0.017,0.042c-0.121,0.292-0.394,0.481-0.693,0.481h-1.141
	c-3.748,0-6.797,3.049-6.797,6.797V44.8c0,3.748,3.049,6.797,6.797,6.797h1.141c0.3,0,0.573,0.189,0.694,0.482l0.017,0.041
	c0.122,0.293,0.063,0.62-0.149,0.833l-0.806,0.807c-1.284,1.283-1.991,2.99-1.991,4.807c0,1.814,0.707,3.521,1.991,4.806
	l1.602,1.602c2.65,2.65,6.963,2.65,9.613,0l0.806-0.807c0.213-0.212,0.54-0.271,0.829-0.149l0.046,0.018
	c0.292,0.121,0.481,0.394,0.481,0.693v1.142c0,3.748,3.049,6.797,6.797,6.797h2.266C45.881,72.667,48.93,69.618,48.93,65.87z"/>
</svg>
