<?xml version="1.0" encoding="utf-8"?>
<!-- Generator: Adobe Illustrator 16.0.0, SVG Export Plug-In . SVG Version: 6.00 Build 0)  -->
<!DOCTYPE svg PUBLIC "-//W3C//DTD SVG 1.1//EN" "http://www.w3.org/Graphics/SVG/1.1/DTD/svg11.dtd">
<svg version="1.1" id="Layer_1" xmlns="http://www.w3.org/2000/svg" xmlns:xlink="http://www.w3.org/1999/xlink" x="0px" y="0px"
	 width="1000px" height="1000px" viewBox="0 0 1000 1000" enable-background="new 0 0 1000 1000" xml:space="preserve">
<path fill="#40B1DD" d="M231.183,485.756c19.6-31.864,9.656-73.584-22.209-93.184c-8.064-4.959-17.078-8.177-26.463-9.435
	c0.473,3.319,0.695,6.662,0.676,10.015c-1.209,37.453-32.106,67.082-69.573,66.72h-7.064c5.525,33.645,34.705,58.27,68.8,58.059
	h62.509l-6.58-11.178C227.364,500.31,227.327,492.235,231.183,485.756z"/>
<g>
	<path fill="#1D2C63" d="M274.442,439.585v44.357c0,0.432,0.053,0.836,0.162,1.212c0.162,0.539,0.404,1.024,0.727,1.455
		c0.915,1.131,2.45,1.696,4.605,1.696c1.562,0,2.909,0.565,4.04,1.697c1.077,1.078,1.616,2.424,1.616,4.04
		c0,1.563-0.539,2.882-1.616,3.959c-1.131,1.131-2.478,1.696-4.04,1.696c-5.548,0-9.857-1.83-12.927-5.494
		c-2.586-2.908-3.906-6.302-3.959-10.18v-44.438h-4.04c-1.563,0-2.882-0.565-3.959-1.697c-1.131-1.131-1.697-2.477-1.697-4.04
		c0-1.562,0.565-2.908,1.697-4.04c1.077-1.077,2.396-1.616,3.959-1.616h4.04v-19.957c0-1.562,0.566-2.909,1.697-4.04
		c1.077-1.077,2.424-1.616,4.04-1.616c1.562,0,2.881,0.539,3.959,1.616c1.131,1.131,1.697,2.478,1.697,4.04v19.957h4.04
		c1.562,0,2.881,0.539,3.959,1.616c1.131,1.131,1.697,2.478,1.697,4.04c0,1.563-0.565,2.909-1.697,4.04
		c-1.078,1.131-2.397,1.697-3.959,1.697H274.442z"/>
	<path fill="#1D2C63" d="M309.104,493.88c0,1.563-0.565,2.909-1.697,4.04c-1.078,1.131-2.424,1.696-4.04,1.696
		c-1.563,0-2.882-0.565-3.959-1.696c-1.131-1.131-1.697-2.478-1.697-4.04v-40.56c0-7.217,2.558-13.384,7.676-18.502
		c5.117-5.117,11.284-7.676,18.502-7.676c4.955,0,9.534,1.293,13.735,3.878c4.147,2.585,7.353,6.087,9.615,10.503
		c0.7,1.401,0.808,2.828,0.323,4.282c-0.484,1.509-1.428,2.613-2.828,3.313c-1.401,0.755-2.855,0.862-4.363,0.323
		c-1.508-0.485-2.613-1.426-3.313-2.828c-1.24-2.477-3.043-4.444-5.413-5.898c-2.371-1.454-4.957-2.181-7.757-2.181
		c-4.094,0-7.595,1.428-10.503,4.282c-2.855,2.909-4.282,6.411-4.282,10.503V493.88z"/>
	<path fill="#1D2C63" d="M398.142,433.768c0-1.616,0.565-2.962,1.696-4.04c1.077-1.131,2.396-1.696,3.959-1.696
		c1.616,0,2.962,0.565,4.04,1.696c1.131,1.078,1.696,2.424,1.696,4.04v40.56c0,7.219-2.559,13.386-7.675,18.502
		c-5.118,5.118-11.285,7.676-18.503,7.676c-7.218,0-13.385-2.558-18.502-7.676c-5.118-5.116-7.676-11.283-7.676-18.502v-40.56
		c0-1.616,0.565-2.962,1.697-4.04c1.077-1.131,2.396-1.696,3.959-1.696c1.616,0,2.961,0.565,4.04,1.696
		c1.131,1.078,1.697,2.424,1.697,4.04v40.56c0,4.094,1.427,7.595,4.282,10.503c2.909,2.856,6.41,4.283,10.503,4.283
		c4.093,0,7.567-1.427,10.423-4.283c2.909-2.909,4.363-6.409,4.363-10.503V433.768z"/>
	<path fill="#1D2C63" d="M447.751,500.425c-7.165,0-13.306-2.558-18.422-7.676c-5.118-5.116-7.676-11.284-7.676-18.502v-21.088
		c0-7.217,2.558-13.384,7.676-18.502c5.116-5.117,11.283-7.676,18.502-7.676c7.218,0,13.385,2.559,18.503,7.676
		c5.116,5.118,7.675,11.285,7.675,18.502v5.979c0,4.472-2.316,6.706-6.948,6.706h-34.015v8.403c0,4.094,1.426,7.595,4.282,10.503
		c2.908,2.747,6.409,4.12,10.503,4.12h0.728c3.446,0,6.464-1.184,9.049-3.555c2.801-2.477,4.416-5.602,4.848-9.372
		c0.162-1.023,0.861-2.046,2.101-3.07c1.185-0.97,2.559-1.374,4.121-1.212c1.562,0.162,2.854,0.862,3.878,2.101
		c0.97,1.186,1.374,2.29,1.212,3.313c-0.7,6.68-3.528,12.255-8.483,16.725c-5.01,4.472-10.854,6.706-17.532,6.706V500.425z
		 M462.617,454.451v-1.292c0-4.093-1.454-7.595-4.363-10.503c-2.855-2.909-6.33-4.363-10.423-4.363
		c-4.094,0-7.595,1.455-10.503,4.363c-2.856,2.909-4.282,6.411-4.282,10.503v1.292H462.617z"/>
	<path fill="#1D2C63" d="M537.271,445.564c0.377,1.508,0.134,2.909-0.727,4.201c-0.809,1.293-1.967,2.128-3.475,2.505
		c-1.563,0.323-3.017,0.081-4.362-0.727c-1.293-0.808-2.129-1.966-2.505-3.475c-1.509-6.571-6.33-9.857-14.463-9.857
		c-2.424,0-4.633,0.323-6.625,0.97c-2.424,0.808-4.175,1.967-5.252,3.474c-1.078,1.508-1.535,3.151-1.373,4.928
		c0.161,1.778,0.889,3.341,2.181,4.687c1.939,1.993,6.248,4.013,12.928,6.06l2.343,0.727l2.424,0.808
		c1.831,0.646,3.447,1.293,4.849,1.939c3.607,1.67,6.489,3.745,8.645,6.222c3.017,3.447,4.605,7.461,4.768,12.039
		c0.161,4.633-1.159,8.564-3.959,11.796c-2.533,2.908-5.872,5.117-10.02,6.625c-3.502,1.238-7.138,1.858-10.907,1.858h-0.323
		c-0.27,0-0.539,0-0.808,0c-0.862-0.055-1.725-0.135-2.586-0.242c-2.747-0.378-5.332-1.051-7.756-2.021
		c-7.542-2.908-12.2-7.944-13.979-15.108c-0.376-1.507-0.161-2.936,0.646-4.282c0.861-1.293,2.047-2.127,3.556-2.505
		c1.507-0.376,2.935-0.162,4.282,0.646c1.346,0.808,2.208,1.967,2.585,3.474c0.861,3.609,3.475,6.168,7.838,7.675
		c1.346,0.485,2.827,0.809,4.443,0.97c0.484,0.108,0.97,0.162,1.454,0.162c0.162,0,0.323,0.027,0.485,0.08h0.161
		c5.547,0,9.615-1.535,12.2-4.605c1.022-1.131,1.454-2.612,1.293-4.444c-0.162-1.885-0.808-3.5-1.939-4.848
		c-1.886-2.101-6.249-4.202-13.089-6.302l-2.262-0.646l-2.344-0.808c-1.777-0.592-3.34-1.184-4.686-1.778
		c-3.502-1.562-6.33-3.474-8.484-5.736c-3.179-3.285-4.928-7.137-5.251-11.554c-0.378-4.363,0.727-8.403,3.313-12.12
		c4.309-6.248,11.392-9.373,21.249-9.373c8.349,0,14.839,2.397,19.472,7.191c1.724,1.778,3.151,3.825,4.282,6.141
		C536.303,441.982,536.895,443.733,537.271,445.564z"/>
	<path fill="#1D2C63" d="M590.921,433.768c0-1.616,0.565-2.962,1.696-4.04c1.077-1.131,2.396-1.696,3.959-1.696
		c1.616,0,2.962,0.565,4.04,1.696c1.131,1.078,1.696,2.424,1.696,4.04v40.56c0,7.219-2.559,13.386-7.675,18.502
		c-5.118,5.118-11.285,7.676-18.503,7.676c-7.219,0-13.386-2.558-18.502-7.676c-5.118-5.116-7.676-11.283-7.676-18.502v-40.56
		c0-1.616,0.565-2.962,1.696-4.04c1.077-1.131,2.396-1.696,3.959-1.696c1.616,0,2.962,0.565,4.04,1.696
		c1.132,1.078,1.697,2.424,1.697,4.04v40.56c0,4.094,1.426,7.595,4.282,10.503c2.908,2.856,6.409,4.283,10.503,4.283
		c4.093,0,7.567-1.427,10.423-4.283c2.909-2.909,4.363-6.409,4.363-10.503V433.768z"/>
	<path fill="#1D2C63" d="M625.825,535.005c0,1.562-0.565,2.881-1.697,3.959c-1.078,1.132-2.397,1.697-3.959,1.697
		c-1.615,0-2.963-0.565-4.04-1.697c-1.131-1.078-1.696-2.397-1.696-3.959V453.32c0-7.217,2.558-13.384,7.676-18.502
		c5.116-5.117,11.283-7.676,18.502-7.676c7.218,0,13.385,2.559,18.503,7.676c5.116,5.118,7.675,11.285,7.675,18.502v21.088
		c0,7.218-2.559,13.386-7.675,18.502c-5.118,5.118-11.285,7.676-18.503,7.676c-5.387,0-10.315-1.535-14.785-4.605V535.005z
		 M655.396,453.32c0-4.093-1.428-7.595-4.282-10.503c-2.909-2.854-6.411-4.282-10.504-4.282c-4.094,0-7.568,1.428-10.423,4.282
		c-2.908,2.909-4.362,6.411-4.362,10.503v21.088c0,4.094,1.454,7.595,4.362,10.503c2.854,2.856,6.329,4.282,10.423,4.282
		c4.093,0,7.595-1.426,10.504-4.282c2.854-2.909,4.282-6.41,4.282-10.503V453.32z"/>
	<path fill="#1D2C63" d="M690.301,535.005c0,1.562-0.565,2.881-1.697,3.959c-1.078,1.132-2.397,1.697-3.959,1.697
		c-1.615,0-2.963-0.565-4.04-1.697c-1.131-1.078-1.696-2.397-1.696-3.959V453.32c0-7.217,2.558-13.384,7.676-18.502
		c5.116-5.117,11.283-7.676,18.502-7.676c7.218,0,13.385,2.559,18.503,7.676c5.116,5.118,7.675,11.285,7.675,18.502v21.088
		c0,7.218-2.559,13.386-7.675,18.502c-5.118,5.118-11.285,7.676-18.503,7.676c-5.387,0-10.315-1.535-14.785-4.605V535.005z
		 M719.872,453.32c0-4.093-1.428-7.595-4.282-10.503c-2.909-2.854-6.411-4.282-10.504-4.282c-4.094,0-7.568,1.428-10.423,4.282
		c-2.908,2.909-4.362,6.411-4.362,10.503v21.088c0,4.094,1.454,7.595,4.362,10.503c2.854,2.856,6.329,4.282,10.423,4.282
		c4.093,0,7.595-1.426,10.504-4.282c2.854-2.909,4.282-6.41,4.282-10.503V453.32z"/>
	<path fill="#1D2C63" d="M769.562,427.062c7.218,0,13.385,2.559,18.503,7.676c5.116,5.118,7.675,11.285,7.675,18.502v21.088
		c0,7.219-2.559,13.386-7.675,18.502c-5.118,5.118-11.285,7.676-18.503,7.676c-7.219,0-13.386-2.558-18.502-7.676
		c-5.118-5.116-7.676-11.283-7.676-18.502v-21.088c0-7.217,2.558-13.384,7.676-18.502
		C756.176,429.621,762.343,427.062,769.562,427.062z M784.348,453.239c0-4.093-1.454-7.595-4.363-10.503
		c-2.855-2.909-6.33-4.363-10.423-4.363c-4.094,0-7.595,1.454-10.503,4.363c-2.856,2.909-4.282,6.411-4.282,10.503v21.088
		c0,4.094,1.426,7.595,4.282,10.503c2.908,2.856,6.409,4.283,10.503,4.283c4.093,0,7.567-1.427,10.423-4.283
		c2.909-2.909,4.363-6.409,4.363-10.503V453.239z"/>
	<path fill="#1D2C63" d="M819.251,493.88c0,1.563-0.565,2.909-1.697,4.04c-1.078,1.131-2.424,1.696-4.04,1.696
		c-1.563,0-2.882-0.565-3.959-1.696c-1.131-1.131-1.696-2.478-1.696-4.04v-40.56c0-7.217,2.558-13.384,7.676-18.502
		c5.116-5.117,11.283-7.676,18.502-7.676c4.955,0,9.534,1.293,13.735,3.878c4.147,2.585,7.353,6.087,9.615,10.503
		c0.699,1.401,0.808,2.828,0.323,4.282c-0.485,1.509-1.428,2.613-2.828,3.313c-1.401,0.755-2.855,0.862-4.363,0.323
		c-1.509-0.485-2.613-1.426-3.313-2.828c-1.239-2.477-3.044-4.444-5.413-5.898c-2.371-1.454-4.956-2.181-7.757-2.181
		c-4.094,0-7.595,1.428-10.503,4.282c-2.856,2.909-4.282,6.411-4.282,10.503V493.88z"/>
	<path fill="#1D2C63" d="M882.757,439.585v44.357c0,0.432,0.053,0.836,0.161,1.212c0.162,0.539,0.404,1.024,0.728,1.455
		c0.915,1.131,2.45,1.696,4.605,1.696c1.562,0,2.908,0.565,4.04,1.697c1.076,1.078,1.615,2.424,1.615,4.04
		c0,1.563-0.539,2.882-1.615,3.959c-1.132,1.131-2.479,1.696-4.04,1.696c-5.549,0-9.857-1.83-12.928-5.494
		c-2.585-2.908-3.905-6.302-3.959-10.18v-44.438h-4.04c-1.563,0-2.882-0.565-3.959-1.697c-1.131-1.131-1.696-2.477-1.696-4.04
		c0-1.562,0.565-2.908,1.696-4.04c1.077-1.077,2.396-1.616,3.959-1.616h4.04v-19.957c0-1.562,0.565-2.909,1.697-4.04
		c1.076-1.077,2.424-1.616,4.039-1.616c1.563,0,2.881,0.539,3.959,1.616c1.132,1.131,1.697,2.478,1.697,4.04v19.957h4.04
		c1.562,0,2.881,0.539,3.959,1.616c1.131,1.131,1.696,2.478,1.696,4.04c0,1.563-0.565,2.909-1.696,4.04
		c-1.078,1.131-2.397,1.697-3.959,1.697H882.757z"/>
</g>
</svg>
